<svg xmlns="http://www.w3.org/2000/svg" viewBox="0 0 512 512">
  <defs>
    <linearGradient id="bg" x1="0%" y1="0%" x2="100%" y2="100%">
      <stop offset="0%" style="stop-color:#020617"/>
      <stop offset="100%" style="stop-color:#0f172a"/>
    </linearGradient>
    <linearGradient id="moon" x1="0%" y1="0%" x2="100%" y2="100%">
      <stop offset="0%" style="stop-color:#38bdf8"/>
      <stop offset="100%" style="stop-color:#818cf8"/>
    </linearGradient>
    <filter id="glow">
      <feGaussianBlur stdDeviation="12" result="coloredBlur"/>
      <feMerge>
        <feMergeNode in="coloredBlur"/>
        <feMergeNode in="SourceGraphic"/>
      </feMerge>
    </filter>
  </defs>
  <rect width="512" height="512" rx="96" fill="url(#bg)"/>
  <g filter="url(#glow)">
    <path d="M350 160c-10 0-20 1-30 3 20 25 32 57 32 92s-12 67-32 92c10 2 20 3 30 3 55 0 100-43 100-95s-45-95-100-95z" fill="url(#moon)" opacity="0.9"/>
    <circle cx="190" cy="200" r="4" fill="#fbbf24" opacity="0.8"/>
    <circle cx="220" cy="150" r="3" fill="#fbbf24" opacity="0.6"/>
    <circle cx="150" cy="170" r="3" fill="#fbbf24" opacity="0.7"/>
    <circle cx="280" cy="130" r="2.5" fill="#fbbf24" opacity="0.5"/>
    <circle cx="170" cy="300" r="3" fill="#fbbf24" opacity="0.6"/>
  </g>
</svg>
